<svg width="15" height="8" viewBox="0 0 15 8" fill="none" xmlns="http://www.w3.org/2000/svg">
<path d="M0.861636 2.19101L6.57213 7.62117C6.69588 7.74121 6.8431 7.83649 7.00531 7.9015C7.16752 7.96652 7.3415 8 7.51722 8C7.69295 8 7.86693 7.96652 8.02914 7.9015C8.19135 7.83649 8.33857 7.74121 8.46232 7.62117L14.1063 2.19101C14.231 2.07195 14.33 1.93031 14.3976 1.77424C14.4652 1.61818 14.5 1.45078 14.5 1.28171C14.5 1.11265 14.4652 0.945251 14.3976 0.789186C14.33 0.633121 14.231 0.491475 14.1063 0.372417C13.8569 0.133886 13.5195 -8.57196e-08 13.1678 -1.16463e-07C12.8162 -1.47206e-07 12.4788 0.133886 12.2294 0.372417L7.51722 4.90609L2.80507 0.372416C2.55713 0.135815 2.22249 0.00242841 1.87329 0.00101361C1.6981 3.89351e-05 1.52444 0.0323442 1.36226 0.0960777C1.20008 0.159811 1.05257 0.253719 0.928191 0.372416C0.798973 0.48719 0.694674 0.625461 0.62132 0.779242C0.547967 0.933023 0.507013 1.09926 0.500825 1.26836C0.494635 1.43746 0.523336 1.60606 0.585266 1.76442C0.647195 1.92279 0.741128 2.06777 0.861636 2.19101Z" fill="#4D4D4F"/>
</svg>
