<svg width="23" height="28" viewBox="0 0 23 28" fill="none" xmlns="http://www.w3.org/2000/svg">
<path d="M22.1267 17.8133L21.3667 12.2666C20.74 7.63994 17.1667 4.05328 12.82 3.43994V2.01335C12.82 1.28001 12.22 0.680014 11.4867 0.680014C10.7534 0.680014 10.1534 1.28001 10.1534 2.01335V3.43994C5.80669 4.06661 2.26001 7.63994 1.62001 12.2666L0.860022 17.8133C0.660022 19.2533 1.08668 20.6933 2.03334 21.76C2.92668 22.7733 4.19336 23.3599 5.52669 23.3599H6.92669C7.22003 25.5866 9.11335 27.32 11.42 27.32C13.7267 27.32 15.62 25.5866 15.9133 23.3599H17.42C18.7534 23.3599 20.02 22.7733 20.9133 21.76C21.86 20.68 22.2867 19.24 22.0867 17.8133H22.1267ZM11.4467 24.6667C10.6067 24.6667 9.91334 24.12 9.66001 23.3733H13.2334C12.98 24.12 12.2867 24.6667 11.4467 24.6667ZM18.94 20.0133C18.5534 20.4533 18.02 20.7066 17.4467 20.7066H5.54001C4.96668 20.7066 4.44669 20.4667 4.04669 20.0133C3.62002 19.52 3.42001 18.84 3.51334 18.1733L4.27335 12.6266C4.78002 8.8533 7.88668 6 11.5 6C15.1133 6 18.2067 8.8533 18.7267 12.6266L19.4867 18.1733C19.58 18.84 19.38 19.52 18.9533 20.0133H18.94Z" fill="#009CB4"/>
</svg>
