<svg width="33" height="32" viewBox="0 0 33 32" fill="none" xmlns="http://www.w3.org/2000/svg">
<path d="M23.1667 5.33333V4C23.1667 3.26667 22.5667 2.66667 21.8333 2.66667C21.1 2.66667 20.5 3.26667 20.5 4V5.33333H12.5V4C12.5 3.26667 11.9 2.66667 11.1667 2.66667C10.4333 2.66667 9.83333 3.26667 9.83333 4V5.33333C6.88667 5.33333 4.5 7.72 4.5 10.6667V22.6667C4.5 25.6133 6.88667 28 9.83333 28H23.1667C26.1133 28 28.5 25.6133 28.5 22.6667V10.6667C28.5 7.72 26.1133 5.33333 23.1667 5.33333ZM25.8333 22.6667C25.8333 24.1333 24.6333 25.3333 23.1667 25.3333H9.83333C8.36667 25.3333 7.16667 24.1333 7.16667 22.6667V10.6667C7.16667 9.2 8.36667 8 9.83333 8V9.33333C9.83333 10.0667 10.4333 10.6667 11.1667 10.6667C11.9 10.6667 12.5 10.0667 12.5 9.33333V8H20.5V9.33333C20.5 10.0667 21.1 10.6667 21.8333 10.6667C22.5667 10.6667 23.1667 10.0667 23.1667 9.33333V8C24.6333 8 25.8333 9.2 25.8333 10.6667V22.6667Z" fill="#4D4D4F"/>
<path d="M13.4467 15.0667C12.9533 14.5733 12.0467 14.5733 11.5533 15.0667C11.4333 15.1867 11.34 15.3333 11.2733 15.4933C11.2067 15.6667 11.1667 15.84 11.1667 16.0133C11.1667 16.1866 11.2067 16.36 11.2733 16.52C11.34 16.68 11.4333 16.8267 11.5533 16.9467C11.8067 17.2 12.1533 17.3466 12.5 17.3466C12.6733 17.3466 12.8467 17.3067 13.0067 17.24C13.1667 17.1733 13.3133 17.08 13.4467 16.9467C13.5667 16.8267 13.66 16.68 13.7267 16.52C13.8067 16.36 13.8333 16.1866 13.8333 16.0133C13.8333 15.84 13.8067 15.6667 13.7267 15.4933C13.66 15.3333 13.5667 15.1867 13.4467 15.0667Z" fill="#4D4D4F"/>
<path d="M13.4467 19.0667C13.38 19 13.3133 18.9467 13.2467 18.9067C13.1667 18.8533 13.0867 18.8133 13.0067 18.7733C12.9267 18.7467 12.8467 18.72 12.7667 18.7067C12.5933 18.6667 12.4067 18.6667 12.2467 18.7067C12.1533 18.7067 12.0733 18.7467 11.9933 18.7733C11.9133 18.8133 11.8333 18.8533 11.7667 18.9067C11.6867 18.9467 11.62 19 11.5533 19.0667C11.4333 19.1867 11.34 19.3333 11.2733 19.4933C11.2067 19.6667 11.1667 19.8267 11.1667 20.0133C11.1667 20.3733 11.3133 20.7067 11.5533 20.9467C11.8067 21.2 12.1533 21.3466 12.5 21.3466C12.8467 21.3466 13.1933 21.2 13.4467 20.9467C13.7 20.7067 13.8333 20.3733 13.8333 20.0133C13.8333 19.8267 13.7933 19.6667 13.7267 19.4933C13.66 19.3333 13.5667 19.1867 13.4467 19.0667Z" fill="#4D4D4F"/>
<path d="M17.4467 15.0667C17.38 15 17.3133 14.9466 17.2467 14.8933C17.1667 14.8533 17.0867 14.8133 17.0067 14.7733C16.9267 14.7467 16.8467 14.72 16.7667 14.7067C16.5 14.6533 16.2333 14.68 15.9933 14.7733C15.8333 14.84 15.6867 14.9467 15.5533 15.0667C15.4333 15.1867 15.34 15.3333 15.2733 15.4933C15.2067 15.6667 15.1667 15.84 15.1667 16.0133C15.1667 16.1866 15.2067 16.36 15.2733 16.52C15.34 16.68 15.4333 16.8267 15.5533 16.9467C15.6867 17.08 15.8333 17.1733 15.9933 17.24C16.1533 17.3067 16.3267 17.3466 16.5 17.3466C16.6733 17.3466 16.8467 17.3067 17.0067 17.24C17.1667 17.1733 17.3133 17.08 17.4467 16.9467C17.5667 16.8267 17.66 16.68 17.7267 16.52C17.8067 16.36 17.8333 16.1866 17.8333 16.0133C17.8333 15.84 17.8067 15.6667 17.7267 15.4933C17.66 15.3333 17.5667 15.1867 17.4467 15.0667Z" fill="#4D4D4F"/>
<path d="M17.4467 19.0666C17.3267 18.9466 17.18 18.84 17.0067 18.7733C16.6867 18.64 16.3133 18.64 15.9933 18.7733C15.8333 18.84 15.6867 18.9466 15.5533 19.0666C15.4333 19.1866 15.34 19.3333 15.2733 19.4933C15.2067 19.6666 15.1667 19.8266 15.1667 20.0133C15.1667 20.1866 15.2067 20.36 15.2733 20.52C15.34 20.68 15.4333 20.8266 15.5533 20.9466C15.6867 21.08 15.8333 21.1733 15.9933 21.24C16.1533 21.3066 16.3267 21.3466 16.5 21.3466C16.86 21.3466 17.1933 21.2 17.4467 20.9466C17.5667 20.8266 17.66 20.68 17.74 20.52C17.8067 20.36 17.8333 20.1866 17.8333 20.0133C17.8333 19.84 17.8067 19.6666 17.7267 19.4933C17.66 19.3333 17.5667 19.1866 17.4467 19.0666Z" fill="#4D4D4F"/>
<path d="M21.4467 15.0666C21.3267 14.9466 21.18 14.84 21.0067 14.7733C20.5133 14.5733 19.9267 14.6933 19.5533 15.0666C19.4333 15.1866 19.34 15.3333 19.2733 15.4933C19.2067 15.6666 19.1667 15.84 19.1667 16.0133C19.1667 16.1866 19.2067 16.36 19.2733 16.52C19.34 16.68 19.4333 16.8266 19.5533 16.9466C19.6867 17.08 19.8333 17.1733 19.9933 17.24C20.1533 17.3066 20.3267 17.3466 20.5 17.3466C20.6733 17.3466 20.8467 17.3066 21.0067 17.24C21.1667 17.1733 21.3133 17.08 21.4467 16.9466C21.5667 16.8266 21.66 16.68 21.7267 16.52C21.8067 16.36 21.8333 16.1866 21.8333 16.0133C21.8333 15.84 21.8067 15.6666 21.7267 15.4933C21.66 15.3333 21.5667 15.1866 21.4467 15.0666Z" fill="#4D4D4F"/>
<path d="M21.4467 19.0667C21.38 19 21.3133 18.9467 21.2467 18.9067C21.1667 18.8533 21.0867 18.8133 21.0067 18.7733C20.9267 18.7467 20.8467 18.72 20.7667 18.7067C20.5933 18.6667 20.4067 18.6667 20.2467 18.7067C20.1533 18.7067 20.0733 18.7467 19.9933 18.7733C19.9133 18.8133 19.8333 18.8533 19.7667 18.9067C19.6867 18.9467 19.62 19 19.5533 19.0667C19.4333 19.1867 19.34 19.3333 19.2733 19.4933C19.2067 19.6667 19.1667 19.8267 19.1667 20.0133C19.1667 20.3733 19.3133 20.7067 19.5533 20.9467C19.8067 21.2 20.1533 21.3466 20.5 21.3466C20.8467 21.3466 21.1933 21.2 21.4467 20.9467C21.7 20.7067 21.8333 20.3733 21.8333 20.0133C21.8333 19.8267 21.7933 19.6667 21.7267 19.4933C21.66 19.3333 21.5667 19.1867 21.4467 19.0667Z" fill="#4D4D4F"/>
</svg>
