<svg width="32" height="32" viewBox="0 0 32 32" fill="none" xmlns="http://www.w3.org/2000/svg">
<path d="M16.191 9.36163L21.6212 15.0721C21.7412 15.1959 21.8365 15.3431 21.9015 15.5053C21.9665 15.6675 22 15.8415 22 16.0172C22 16.1929 21.9665 16.3669 21.9015 16.5291C21.8365 16.6914 21.7412 16.8386 21.6212 16.9623L16.191 22.6063C16.072 22.731 15.9303 22.83 15.7742 22.8976C15.6182 22.9652 15.4508 23 15.2817 23C15.1126 23 14.9453 22.9652 14.7892 22.8976C14.6331 22.83 14.4915 22.731 14.3724 22.6063C14.1339 22.3569 14 22.0195 14 21.6678C14 21.3162 14.1339 20.9788 14.3724 20.7294L18.9061 16.0172L14.3724 11.3051C14.1358 11.0571 14.0024 10.7225 14.001 10.3733C14 10.1981 14.0323 10.0244 14.0961 9.86226C14.1598 9.70008 14.2537 9.55257 14.3724 9.42819C14.4872 9.29897 14.6255 9.19467 14.7792 9.12132C14.933 9.04797 15.0993 9.00701 15.2684 9.00082C15.4375 8.99463 15.6061 9.02334 15.7644 9.08526C15.9228 9.14719 16.0678 9.24113 16.191 9.36163Z" fill="#4D4D4F"/>
<path d="M8.19101 9.36163L13.6212 15.0721C13.7412 15.1959 13.8365 15.3431 13.9015 15.5053C13.9665 15.6675 14 15.8415 14 16.0172C14 16.1929 13.9665 16.3669 13.9015 16.5291C13.8365 16.6914 13.7412 16.8386 13.6212 16.9623L8.19101 22.6063C8.07195 22.731 7.93031 22.83 7.77424 22.8976C7.61818 22.9652 7.45078 23 7.28171 23C7.11265 23 6.94525 22.9652 6.78919 22.8976C6.63312 22.83 6.49148 22.731 6.37242 22.6063C6.13389 22.3569 6 22.0195 6 21.6678C6 21.3162 6.13389 20.9788 6.37242 20.7294L10.9061 16.0172L6.37242 11.3051C6.13582 11.0571 6.00243 10.7225 6.00102 10.3733C6.00004 10.1981 6.03235 10.0244 6.09608 9.86226C6.15981 9.70008 6.25372 9.55257 6.37242 9.42819C6.48719 9.29897 6.62546 9.19467 6.77924 9.12132C6.93302 9.04797 7.09927 9.00701 7.26836 9.00082C7.43746 8.99463 7.60606 9.02334 7.76442 9.08526C7.92279 9.14719 8.06778 9.24113 8.19101 9.36163Z" fill="#4D4D4F"/>
</svg>
