<svg width="16" height="21" viewBox="0 0 16 21" fill="none" xmlns="http://www.w3.org/2000/svg">
<path d="M7.10001 15.61C7.24001 15.75 7.41002 15.84 7.59002 15.9C7.72002 15.96 7.86002 16 8.01002 16C8.16002 16 8.30001 15.96 8.42001 15.9C8.60001 15.84 8.77002 15.75 8.91002 15.61L14.16 10.35C14.55 9.95998 14.55 9.33 14.16 8.94C13.77 8.55 13.14 8.55 12.75 8.94L9.02001 12.69V1.01001C9.02001 0.46001 8.58001 0.0100098 8.02001 0.0100098C7.46001 0.0100098 7.02002 0.46001 7.02002 1.01001V12.69L3.28001 8.94995C2.89001 8.55995 2.26001 8.55995 1.87001 8.94995C1.48001 9.33995 1.48001 9.96999 1.87001 10.36L7.12002 15.62L7.10001 15.61Z" fill="#009CB4"/>
<path d="M15 16C14.45 16 14 16.45 14 17C14 17.66 13.4 18.01 12.84 18.01H3.14C2.57 18.01 2 17.66 2 17C2 16.45 1.55 16 1 16C0.45 16 0 16.45 0 17C0 18.69 1.38 20.01 3.14 20.01H12.84C14.61 20.01 16 18.69 16 17C16 16.45 15.55 16 15 16Z" fill="#009CB4"/>
</svg>
