<svg width="22" height="17" viewBox="0 0 22 17" fill="none" xmlns="http://www.w3.org/2000/svg">
<path d="M20.0599 6.48C18.0899 4.12 14.9299 1.3 11.0099 1.3C10.2599 1.3 9.48989 1.41 8.72989 1.62C8.19989 1.77 7.88989 2.31999 8.03989 2.84999C8.18989 3.37999 8.7399 3.69 9.2699 3.54C9.8499 3.38 10.4399 3.29 11.0099 3.29C14.3099 3.29 17.1299 6.08 18.5199 7.75C19.1499 8.51 19.1599 9.57999 18.5499 10.34C18.3099 10.64 18.0399 10.95 17.7399 11.27C17.3599 11.67 17.3799 12.31 17.7799 12.68C17.9699 12.86 18.2199 12.95 18.4699 12.95C18.7399 12.95 18.9999 12.84 19.1999 12.64C19.5399 12.28 19.8399 11.93 20.1099 11.6C21.3199 10.11 21.2999 7.95 20.0699 6.47L20.0599 6.48Z" fill="#A8AAAE"/>
<path d="M7.04989 3.64C7.01989 3.56 6.99989 3.48 6.94989 3.4C6.81989 3.21 6.63989 3.1 6.44989 3.03L4.7099 1.29C4.3199 0.899998 3.67989 0.899998 3.29989 1.29C2.90989 1.68 2.90989 2.31 3.29989 2.7L4.51989 3.91999C3.63989 4.62999 2.7899 5.47 1.9599 6.45C0.709897 7.93 0.669891 10.02 1.85989 11.54C3.36989 13.46 6.55989 16.69 10.9699 16.69C12.6399 16.69 14.2799 16.21 15.8699 15.3L17.2699 16.71C17.4699 16.91 17.7199 17 17.9799 17C18.2399 17 18.4899 16.9 18.6899 16.71C19.0799 16.32 19.0799 15.69 18.6899 15.3L7.04989 3.64ZM9.0699 8.5L11.4999 10.93C11.3399 10.97 11.1699 11 10.9999 11C9.89989 11 8.99989 10.1 8.99989 9C8.99989 8.83 9.0299 8.66 9.0699 8.5ZM10.9599 14.7C7.3999 14.7 4.70989 11.95 3.41989 10.31C2.81989 9.54999 2.83989 8.49 3.46989 7.75C4.25989 6.81 5.07989 6.01 5.91989 5.36L7.55989 7C7.19989 7.61 6.9899 8.29 6.9899 9.01C6.9899 11.22 8.7799 13.01 10.9899 13.01C11.6999 13.01 12.3899 12.8 12.9899 12.45L14.3799 13.85C13.2499 14.42 12.0999 14.71 10.9499 14.71L10.9599 14.7Z" fill="#A8AAAE"/>
</svg>
