<svg width="32" height="32" viewBox="0 0 32 32" fill="none" xmlns="http://www.w3.org/2000/svg">
<path d="M2.65332 8.63995C2.63999 7.39995 3.10668 6.22658 3.97335 5.34658C4.82668 4.47991 5.95999 4.01324 7.15999 4.01324H24.9733C26.1067 4.01324 27.16 4.43997 27.96 5.23997C28.8267 6.10664 29.32 7.35997 29.3067 8.6533C29.3067 9.9733 28.72 11.2266 27.7333 12.0932L20.8667 18.2C20.6 18.44 20.3067 19.1332 20.3067 19.7466V24.04C20.3067 24.9334 19.8267 25.7732 19.0533 26.2399L18.8534 26.3467L15.36 27.7199C14.9867 27.9199 14.5733 28.0267 14.16 28.0267C13.7333 28.0267 13.3067 27.92 12.9067 27.6933C12.0933 27.24 11.6 26.3733 11.6 25.4399V19.4933C11.6 19.1866 11.2933 18.5733 10.8133 18.1466L4.13334 11.9733C3.20001 11.1333 2.65335 9.91995 2.64001 8.63995H2.65332ZM17.68 23.9332L17.64 19.7332C17.64 18.5999 18.0933 17.0667 19.1066 16.1867L25.9733 10.08C26.4 9.70664 26.64 9.18661 26.64 8.62661C26.64 8.03994 26.4267 7.47992 26.0667 7.10659C25.8533 6.89325 25.5067 6.6533 24.9733 6.6533H7.17334C6.68001 6.66663 6.21333 6.86661 5.86666 7.21328C5.50666 7.58661 5.30665 8.06657 5.31999 8.58657V8.62661C5.31999 9.14661 5.55999 9.65331 5.94666 9.99998L12.6267 16.1733C13.3867 16.8667 14.2933 18.1466 14.2933 19.4933V25.4399" fill="#676A71"/>
</svg>
