<svg width="170" height="40" viewBox="0 0 170 40" fill="none" xmlns="http://www.w3.org/2000/svg">
<path d="M14.9976 23.2929L19.8092 18.5352H31.7618L21.1736 29.2829L14.9976 23.2929Z" fill="#009CB4"/>
<path d="M0 20.109L6.01134 26.3562L31.7618 0H19.8092L0 20.109Z" fill="#009CB4"/>
<path d="M8.97478 29.3424L15.072 35.4399L21.1736 29.2829L14.9976 23.2929L8.97478 29.3424Z" fill="#009CB4"/>
<path d="M15.072 35.4399L21.1736 29.2829L31.6129 40H19.5931L15.072 35.4399Z" fill="#008094"/>
<path d="M15.072 35.4399L20.757 33.5203L18.8415 31.6355L15.072 35.4399Z" fill="#007A8D"/>
<path d="M56.6819 16.7061C56.6819 17.2874 56.5785 17.8687 56.3717 18.45C56.1649 19.0151 55.8865 19.5398 55.5366 20.0242C55.0275 20.7347 54.3595 21.2998 53.5323 21.7196C52.7211 22.1394 51.8541 22.3493 50.9315 22.3493H46.3265V28.2831H43.0815V10.845H50.9315C51.5201 10.845 52.1007 10.9338 52.6733 11.1114C53.246 11.289 53.7789 11.5635 54.272 11.9349C54.7651 12.2901 55.1866 12.7099 55.5366 13.1943C55.9024 13.6949 56.1808 14.2519 56.3717 14.8655C56.5785 15.4629 56.6819 16.0764 56.6819 16.7061ZM52.8642 18.2078C53.2142 17.7234 53.3891 17.2228 53.3891 16.7061C53.3891 15.9634 53.1824 15.3579 52.7688 14.8897C52.5302 14.6152 52.2359 14.3891 51.886 14.2115C51.5519 14.0339 51.2258 13.9451 50.9077 13.9451H46.3265V19.2734H50.9077C51.2417 19.2734 51.5917 19.1765 51.9575 18.9828C52.3234 18.789 52.6256 18.5307 52.8642 18.2078Z" fill="#009CB4"/>
<path d="M61.6284 22.6399C61.7397 23.3988 61.9624 24.0043 62.2965 24.4564C62.551 24.8116 62.885 25.0861 63.2986 25.2799C63.7122 25.4736 64.1576 25.5705 64.6348 25.5705C65.112 25.5705 65.5574 25.4736 65.9709 25.2799C66.3845 25.0861 66.7265 24.8116 66.9969 24.4564C67.0446 24.3918 67.0844 24.3272 67.1162 24.2626C67.148 24.1819 67.1878 24.1092 67.2355 24.0447L70.4567 25.4736C70.2499 25.8288 69.9954 26.1841 69.6931 26.5393C69.0887 27.2174 68.3729 27.7422 67.5457 28.1135C66.7345 28.4688 65.8755 28.6464 64.9688 28.6464C63.903 28.6464 62.9089 28.4688 61.9863 28.1135C61.0637 27.7422 60.3002 27.1932 59.6957 26.4666C58.6459 25.1588 58.1209 23.6572 58.1209 21.9618C58.1209 19.9435 58.6459 18.2966 59.6957 17.021C60.2843 16.3106 61.008 15.7697 61.867 15.3983C62.7418 15.0269 63.6645 14.8412 64.6348 14.8412C65.6051 14.8412 66.5197 15.0269 67.3787 15.3983C68.2536 15.7697 68.9853 16.3106 69.5738 17.021C70.0988 17.6669 70.4885 18.3934 70.743 19.2008C71.0134 20.0081 71.1486 20.8558 71.1486 21.7438C71.1486 21.9537 71.1327 22.2524 71.1009 22.6399H61.6284ZM64.6348 17.9171C64.1576 17.9171 63.7122 18.014 63.2986 18.2078C62.885 18.3854 62.551 18.6599 62.2965 19.0312C62.0738 19.3219 61.8988 19.6771 61.7715 20.0969H67.498C67.3707 19.6932 67.2037 19.338 66.9969 19.0312C66.7265 18.6599 66.3845 18.3854 65.9709 18.2078C65.5733 18.014 65.1279 17.9171 64.6348 17.9171Z" fill="#009CB4"/>
<path d="M76.5708 22.6399C76.6822 23.3988 76.9049 24.0043 77.2389 24.4564C77.4934 24.8116 77.8275 25.0861 78.2411 25.2799C78.6546 25.4736 79.1 25.5705 79.5772 25.5705C80.0544 25.5705 80.4998 25.4736 80.9134 25.2799C81.327 25.0861 81.669 24.8116 81.9394 24.4564C81.9871 24.3918 82.0269 24.3272 82.0587 24.2626C82.0905 24.1819 82.1303 24.1092 82.178 24.0447L85.3991 25.4736C85.1923 25.8288 84.9378 26.1841 84.6356 26.5393C84.0311 27.2174 83.3153 27.7422 82.4882 28.1135C81.6769 28.4688 80.8179 28.6464 79.9113 28.6464C78.8455 28.6464 77.8513 28.4688 76.9287 28.1135C76.0061 27.7422 75.2426 27.1932 74.6382 26.4666C73.5883 25.1588 73.0634 23.6572 73.0634 21.9618C73.0634 19.9435 73.5883 18.2966 74.6382 17.021C75.2267 16.3106 75.9505 15.7697 76.8094 15.3983C77.6843 15.0269 78.6069 14.8412 79.5772 14.8412C80.5475 14.8412 81.4622 15.0269 82.3212 15.3983C83.196 15.7697 83.9277 16.3106 84.5163 17.021C85.0412 17.6669 85.4309 18.3934 85.6854 19.2008C85.9559 20.0081 86.0911 20.8558 86.0911 21.7438C86.0911 21.9537 86.0752 22.2524 86.0433 22.6399H76.5708ZM79.5772 17.9171C79.1 17.9171 78.6546 18.014 78.2411 18.2078C77.8275 18.3854 77.4934 18.6599 77.2389 19.0312C77.0162 19.3219 76.8412 19.6771 76.714 20.0969H82.4405C82.3132 19.6932 82.1462 19.338 81.9394 19.0312C81.669 18.6599 81.327 18.3854 80.9134 18.2078C80.5157 18.014 80.0703 17.9171 79.5772 17.9171Z" fill="#009CB4"/>
<path d="M97.1205 19.4672C97.025 19.2896 96.9375 19.1442 96.858 19.0312C96.6035 18.676 96.2615 18.4015 95.832 18.2078C95.4184 18.014 94.973 17.9171 94.4958 17.9171C94.0186 17.9171 93.5732 18.014 93.1597 18.2078C92.7461 18.4015 92.412 18.676 92.1575 19.0312C91.6962 19.6448 91.4497 20.549 91.4179 21.7438C91.4497 22.9386 91.6962 23.8428 92.1575 24.4564C92.412 24.8116 92.7461 25.0861 93.1597 25.2799C93.5732 25.4575 94.0186 25.5463 94.4958 25.5463C94.9889 25.5463 95.4423 25.4575 95.8559 25.2799C96.2694 25.0861 96.6035 24.8116 96.858 24.4564L97.0966 24.0447L100.151 25.3767C99.8644 25.8611 99.6258 26.2163 99.4349 26.4424C98.8463 27.1528 98.1146 27.7018 97.2398 28.0893C96.3649 28.4768 95.4502 28.6544 94.4958 28.6222C93.5414 28.6544 92.6268 28.4849 91.7519 28.1135C90.8929 27.726 90.1692 27.169 89.5806 26.4424C88.5308 25.1668 88.0058 23.6006 88.0058 21.7438C88.0058 19.9031 88.5308 18.3289 89.5806 17.021C90.1851 16.2944 90.9168 15.7535 91.7758 15.3983C92.6347 15.0269 93.5414 14.8412 94.4958 14.8412C95.4661 14.8412 96.3808 15.0269 97.2398 15.3983C98.1146 15.7697 98.8463 16.3106 99.4349 17.021C99.7371 17.3924 99.9757 17.7637 100.151 18.1351L97.1205 19.4672Z" fill="#009CB4"/>
<path d="M113.275 18.1109H109.052V28.2831H105.807V18.1109H101.584V15.2045H113.275V18.1109Z" fill="#009CB4"/>
<path d="M126.565 16.9241C127.059 17.5538 127.432 18.2885 127.687 19.1281C127.941 19.9516 128.069 20.8235 128.069 21.7438C128.069 23.7137 127.568 25.3202 126.565 26.5635C126.041 27.2255 125.38 27.7422 124.585 28.1135C123.806 28.4688 122.986 28.6464 122.127 28.6464C120.855 28.6464 119.749 28.3557 118.811 27.7745V34.0958H115.542V15.2045H118.405V16.028C118.898 15.6566 119.447 15.366 120.052 15.1561C120.672 14.9462 121.308 14.8412 121.96 14.8412C122.883 14.8412 123.742 15.0189 124.537 15.3741C125.349 15.7293 126.025 16.246 126.565 16.9241ZM123.989 24.5533C124.418 23.9074 124.633 22.9709 124.633 21.7438C124.633 20.5651 124.402 19.6286 123.941 18.9343C123.432 18.1593 122.613 17.7718 121.483 17.7718C120.545 17.7718 119.821 18.0786 119.312 18.6921C119.01 19.0474 118.779 19.4914 118.62 20.0242C118.477 20.5571 118.405 21.1302 118.405 21.7438C118.405 22.3574 118.477 22.9386 118.62 23.4876C118.779 24.0204 119.01 24.4564 119.312 24.7955C119.869 25.409 120.632 25.7158 121.603 25.7158C122.096 25.7158 122.549 25.627 122.963 25.4494C123.392 25.2556 123.734 24.9569 123.989 24.5533Z" fill="#009CB4"/>
<path d="M150.482 28.2831H147.237V14.1389H138.934V28.2831H135.689V10.845H150.482V28.2831Z" fill="#009CB4"/>
<path d="M161.673 28.6464C160.416 28.6464 159.231 28.4042 158.118 27.9198C157.004 27.4192 156.082 26.7088 155.35 25.7885C154.682 24.965 154.181 24.0204 153.847 22.9548C153.513 21.8891 153.346 20.7589 153.346 19.564C153.346 18.3692 153.513 17.239 153.847 16.1733C154.181 15.0915 154.682 14.1389 155.35 13.3154C156.082 12.3789 156.996 11.6766 158.094 11.2083C159.207 10.7239 160.4 10.4817 161.673 10.4817C162.945 10.4817 164.13 10.7239 165.228 11.2083C166.326 11.6927 167.248 12.3951 167.996 13.3154C168.68 14.1712 169.173 15.1157 169.475 16.1491C169.793 17.1825 169.968 18.3208 170 19.564C169.968 20.8235 169.793 21.9699 169.475 23.0032C169.173 24.0204 168.68 24.9489 167.996 25.7885C167.232 26.725 166.294 27.4354 165.18 27.9198C164.083 28.4042 162.914 28.6464 161.673 28.6464ZM161.577 25.5463C162.373 25.5463 163.104 25.401 163.772 25.1103C164.441 24.8197 164.989 24.3837 165.419 23.8025C166.182 22.7691 166.564 21.3563 166.564 19.564C166.564 17.7557 166.182 16.3429 165.419 15.3256C165.005 14.7605 164.472 14.3326 163.82 14.042C163.184 13.7352 162.5 13.5818 161.768 13.5818C160.973 13.5818 160.233 13.7271 159.549 14.0178C158.881 14.3084 158.34 14.7444 157.927 15.3256C157.179 16.2944 156.789 17.7072 156.758 19.564C156.789 21.4047 157.179 22.8175 157.927 23.8025C158.324 24.3676 158.849 24.8035 159.501 25.1103C160.154 25.401 160.846 25.5463 161.577 25.5463Z" fill="#009CB4"/>
</svg>
