<svg width="8" height="14" viewBox="0 0 8 14" fill="none" xmlns="http://www.w3.org/2000/svg">
<path d="M2.19101 0.361635L7.62117 6.07213C7.74121 6.19588 7.83649 6.3431 7.90151 6.50531C7.96652 6.66752 8 6.8415 8 7.01722C8 7.19295 7.96652 7.36693 7.90151 7.52914C7.83649 7.69135 7.74121 7.83857 7.62117 7.96232L2.19101 13.6063C2.07195 13.731 1.93031 13.83 1.77424 13.8976C1.61818 13.9652 1.45078 14 1.28171 14C1.11265 14 0.945251 13.9652 0.789186 13.8976C0.633121 13.83 0.491475 13.731 0.372417 13.6063C0.133886 13.3569 4.28598e-08 13.0195 5.82315e-08 12.6678C7.36031e-08 12.3162 0.133886 11.9788 0.372418 11.7294L4.90609 7.01722L0.372418 2.30507C0.135816 2.05713 0.00243002 1.72249 0.00101526 1.37328C4.06139e-05 1.1981 0.0323459 1.02444 0.0960794 0.862259C0.159813 0.700079 0.253721 0.552569 0.372418 0.42819C0.487191 0.298972 0.625463 0.194673 0.779244 0.121319C0.933025 0.0479657 1.09927 0.00701207 1.26836 0.00082368C1.43746 -0.00536566 1.60606 0.0233352 1.76442 0.0852649C1.92279 0.147195 2.06778 0.241127 2.19101 0.361635Z" fill="#4D4D4F"/>
</svg>
