<svg width="19" height="19" viewBox="0 0 19 19" fill="none" xmlns="http://www.w3.org/2000/svg">
<path d="M17.81 16.35L14.91 13.45C16 12.05 16.59 10.34 16.59 8.54C16.59 6.39 15.75 4.37 14.23 2.85C11.1 -0.289997 5.99001 -0.289997 2.86 2.85C-0.279995 5.99 -0.279995 11.09 2.86 14.22C4.38 15.74 6.4 16.58 8.55 16.58C10.37 16.58 12.1 15.97 13.5 14.87L16.4 17.77C16.6 17.97 16.85 18.06 17.11 18.06C17.37 18.06 17.62 17.96 17.82 17.77C18.21 17.38 18.21 16.75 17.82 16.36L17.81 16.35ZM4.27 12.81C1.91 10.45 1.91 6.62 4.27 4.27C5.45 3.09 7 2.5 8.54 2.5C10.08 2.5 11.63 3.09 12.81 4.27C13.99 5.45 14.58 6.93 14.58 8.54C14.58 10.15 13.95 11.67 12.81 12.81C11.67 13.95 10.15 14.58 8.54 14.58C6.93 14.58 5.41 13.95 4.27 12.81V12.81Z" fill="#C6C6C6"/>
</svg>
