<svg width="32" height="32" viewBox="0 0 32 32" fill="none" xmlns="http://www.w3.org/2000/svg">
<path d="M16 13.8666C14.8267 13.8666 13.8667 14.8266 13.8667 16C13.8667 17.1733 14.8267 18.1333 16 18.1333C17.1734 18.1333 18.1334 17.1733 18.1334 16C18.1334 14.8266 17.1734 13.8666 16 13.8666Z" fill="#676A71"/>
<path d="M16 22.4C14.8267 22.4 13.8667 23.36 13.8667 24.5333C13.8667 25.7066 14.8267 26.6666 16 26.6666C17.1734 26.6666 18.1334 25.7066 18.1334 24.5333C18.1334 23.36 17.1734 22.4 16 22.4Z" fill="#676A71"/>
<path d="M16 9.59996C17.1734 9.59996 18.1334 8.63995 18.1334 7.46661C18.1334 6.29328 17.1734 5.33331 16 5.33331C14.8267 5.33331 13.8667 6.29328 13.8667 7.46661C13.8667 8.63995 14.8267 9.59996 16 9.59996Z" fill="#676A71"/>
</svg>
