<svg width="18" height="19" viewBox="0 0 18 19" fill="none" xmlns="http://www.w3.org/2000/svg">
<path d="M14 2V1C14 0.45 13.55 0 13 0C12.45 0 12 0.45 12 1V2H6V1C6 0.45 5.55 0 5 0C4.45 0 4 0.45 4 1V2C1.79 2 0 3.79 0 6V15C0 17.21 1.79 19 4 19H14C16.21 19 18 17.21 18 15V6C18 3.79 16.21 2 14 2ZM16 15C16 16.1 15.1 17 14 17H4C2.9 17 2 16.1 2 15V6C2 4.9 2.9 4 4 4V5C4 5.55 4.45 6 5 6C5.55 6 6 5.55 6 5V4H12V5C12 5.55 12.45 6 13 6C13.55 6 14 5.55 14 5V4C15.1 4 16 4.9 16 6V15Z" fill="#A8AAAE"/>
<path d="M6.71001 9.29999C6.34001 8.92999 5.65999 8.92999 5.28999 9.29999C5.19999 9.38999 5.13 9.5 5.08 9.62C5.03 9.75 5 9.87998 5 10.01C5 10.14 5.03 10.27 5.08 10.39C5.13 10.51 5.19999 10.62 5.28999 10.71C5.47999 10.9 5.74 11.01 6 11.01C6.13 11.01 6.26 10.98 6.38 10.93C6.5 10.88 6.61001 10.81 6.71001 10.71C6.80001 10.62 6.87 10.51 6.92 10.39C6.98 10.27 7 10.14 7 10.01C7 9.87998 6.98 9.75 6.92 9.62C6.87 9.5 6.80001 9.38999 6.71001 9.29999Z" fill="#A8AAAE"/>
<path d="M6.71001 12.3C6.66001 12.25 6.61 12.21 6.56 12.18C6.5 12.14 6.44 12.11 6.38 12.08C6.32 12.06 6.26 12.04 6.2 12.03C6.07 12 5.93 12 5.81 12.03C5.74 12.03 5.67999 12.06 5.61999 12.08C5.55999 12.11 5.5 12.14 5.45 12.18C5.39 12.21 5.33999 12.25 5.28999 12.3C5.19999 12.39 5.13 12.5 5.08 12.62C5.03 12.75 5 12.87 5 13.01C5 13.28 5.10999 13.53 5.28999 13.71C5.47999 13.9 5.74 14.01 6 14.01C6.26 14.01 6.52001 13.9 6.71001 13.71C6.90001 13.53 7 13.28 7 13.01C7 12.87 6.97 12.75 6.92 12.62C6.87 12.5 6.80001 12.39 6.71001 12.3Z" fill="#A8AAAE"/>
<path d="M9.71001 9.29999C9.66001 9.24999 9.61 9.20999 9.56 9.16999C9.5 9.13999 9.44001 9.10999 9.38001 9.07999C9.32001 9.05999 9.26 9.04 9.2 9.03C9 8.99 8.8 9.00999 8.62 9.07999C8.5 9.12999 8.38999 9.20999 8.28999 9.29999C8.19999 9.38999 8.13 9.5 8.08 9.62C8.03 9.75 8 9.87998 8 10.01C8 10.14 8.03 10.27 8.08 10.39C8.13 10.51 8.19999 10.62 8.28999 10.71C8.38999 10.81 8.5 10.88 8.62 10.93C8.74 10.98 8.87 11.01 9 11.01C9.13 11.01 9.26001 10.98 9.38001 10.93C9.50001 10.88 9.61001 10.81 9.71001 10.71C9.80001 10.62 9.87 10.51 9.92 10.39C9.98 10.27 10 10.14 10 10.01C10 9.87998 9.98 9.75 9.92 9.62C9.87 9.5 9.80001 9.38999 9.71001 9.29999Z" fill="#A8AAAE"/>
<path d="M9.71001 12.3C9.62001 12.21 9.51001 12.13 9.38001 12.08C9.14001 11.98 8.86 11.98 8.62 12.08C8.5 12.13 8.38999 12.21 8.28999 12.3C8.19999 12.39 8.13 12.5 8.08 12.62C8.03 12.75 8 12.87 8 13.01C8 13.14 8.03 13.27 8.08 13.39C8.13 13.51 8.19999 13.62 8.28999 13.71C8.38999 13.81 8.5 13.88 8.62 13.93C8.74 13.98 8.87 14.01 9 14.01C9.27 14.01 9.52001 13.9 9.71001 13.71C9.80001 13.62 9.86999 13.51 9.92999 13.39C9.97999 13.27 10 13.14 10 13.01C10 12.88 9.98 12.75 9.92 12.62C9.87 12.5 9.80001 12.39 9.71001 12.3Z" fill="#A8AAAE"/>
<path d="M12.71 9.29998C12.62 9.20998 12.51 9.12997 12.38 9.07997C12.01 8.92997 11.57 9.01998 11.29 9.29998C11.2 9.38998 11.13 9.49998 11.08 9.61998C11.03 9.74998 11 9.87997 11 10.01C11 10.14 11.03 10.27 11.08 10.39C11.13 10.51 11.2 10.62 11.29 10.71C11.39 10.81 11.5 10.88 11.62 10.93C11.74 10.98 11.87 11.01 12 11.01C12.13 11.01 12.26 10.98 12.38 10.93C12.5 10.88 12.61 10.81 12.71 10.71C12.8 10.62 12.87 10.51 12.92 10.39C12.98 10.27 13 10.14 13 10.01C13 9.87997 12.98 9.74998 12.92 9.61998C12.87 9.49998 12.8 9.38998 12.71 9.29998Z" fill="#A8AAAE"/>
<path d="M12.71 12.3C12.66 12.25 12.61 12.21 12.56 12.18C12.5 12.14 12.44 12.11 12.38 12.08C12.32 12.06 12.26 12.04 12.2 12.03C12.07 12 11.93 12 11.81 12.03C11.74 12.03 11.68 12.06 11.62 12.08C11.56 12.11 11.5 12.14 11.45 12.18C11.39 12.21 11.34 12.25 11.29 12.3C11.2 12.39 11.13 12.5 11.08 12.62C11.03 12.75 11 12.87 11 13.01C11 13.28 11.11 13.53 11.29 13.71C11.48 13.9 11.74 14.01 12 14.01C12.26 14.01 12.52 13.9 12.71 13.71C12.9 13.53 13 13.28 13 13.01C13 12.87 12.97 12.75 12.92 12.62C12.87 12.5 12.8 12.39 12.71 12.3Z" fill="#A8AAAE"/>
</svg>
